<svg version="1.2" xmlns="http://www.w3.org/2000/svg" viewBox="0 0 32 32" width="32" height="32">
	<title>user_profile_account_contact_icon_229464-svg</title>
	<style>
		.s0 { fill: #ffffff } 
	</style>
	<path id="Layer" fill-rule="evenodd" class="s0" d="m16 16c5.4 0 9.9 3.3 11.4 7.8 0.1 0.3 0.1 0.6-0.1 0.9-2.6 3.2-6.7 5.3-11.3 5.3-4.6 0-8.7-2.1-11.3-5.3-0.2-0.3-0.3-0.6-0.1-0.9 1.5-4.5 6-7.8 11.4-7.8z"/>
	<path id="Layer" class="s0" d="m16 14c-3.3 0-6-2.7-6-6 0-3.3 2.7-6 6-6 3.3 0 6 2.7 6 6 0 3.3-2.7 6-6 6z"/>
</svg>