<svg xmlns="http://www.w3.org/2000/svg" viewBox="0 0 47.71 28.82"><defs><style>.cls-1,.cls-2{fill:#fff;}.cls-1{fill-rule:evenodd;}</style></defs><g id="Capa_2" data-name="Capa 2"><g id="Layer_1" data-name="Layer 1"><path class="cls-1" d="M34.78,19.72c8.51,2.55,8.95-7.26,5-10.87.58-1.56-.28-3.91-2.36-5.94C34.71.32,31.06-.74,29.23.55h0C27.38,1.86,28.08,5,30.74,7.61a9.34,9.34,0,0,0,6.45,2.91,7.89,7.89,0,0,1,2.37,1.71C46,19,36.62,19.7,19.94,10.31.59-.61-2,6.52,1.13,11.92c1.84,1.46.6,4.15,2.43,5.51C5.7,19,8.7,21,11.55,20.79a42.86,42.86,0,0,1-6.84-4.46.54.54,0,0,1-.19-.21.76.76,0,0,1-.13-.31v-.06a.41.41,0,0,1,0-.27.39.39,0,0,1,.09-.28l1.76-3v0a.33.33,0,0,1,.1-.15l.19-.1a.64.64,0,0,1,.26,0,1.12,1.12,0,0,1,.32.17v0l8.48,6.27h0a.93.93,0,0,0,.37.16c0-2-5.35-5.64-7.58-7.29l-1.43-1h0C5.26,9.1,4,11.37,2.12,10.07c-3.93-2.53,1-4.48,9.53-2.14,10.66,2.89,15.86,9.6,23.13,11.79ZM6.46,14.92a1,1,0,0,0-.62-.17h0a1,1,0,0,0-.61.24h0a.66.66,0,0,0-.2.52H5a.64.64,0,0,0,.27.5c10.34,6.27,10.54,6.39,1.16-1.09Zm1.06-1.81a.88.88,0,0,0-.62-.19h0a.75.75,0,0,0-.58.24h0a.68.68,0,0,0-.23.52.7.7,0,0,0,.3.49h0c11.94,8.14,10.69,6.93,1.13-1.06Z"/><path class="cls-2" d="M1.46,26.1v-4h.3l1.54,2.8.42.78h0c0-.19,0-.38,0-.58s0-.38,0-.57V22.14H4v4h-.3L2.12,23.3l-.42-.78h0c0,.19,0,.38,0,.56s0,.37,0,.56V26.1Z"/><path class="cls-2" d="M6.31,26.17a1.62,1.62,0,0,1-.54-.1,1.37,1.37,0,0,1-.45-.3A1.58,1.58,0,0,1,5,25.3,1.92,1.92,0,0,1,5,24a1.63,1.63,0,0,1,.3-.48,1.2,1.2,0,0,1,.45-.29,1.38,1.38,0,0,1,1.08,0,1.17,1.17,0,0,1,.44.29A1.47,1.47,0,0,1,7.6,24a1.92,1.92,0,0,1,0,1.28,1.43,1.43,0,0,1-.31.47,1.32,1.32,0,0,1-.44.3A1.62,1.62,0,0,1,6.31,26.17Zm0-.24a1.13,1.13,0,0,0,.45-.09,1.1,1.1,0,0,0,.35-.26,1.31,1.31,0,0,0,.23-.4,1.73,1.73,0,0,0,0-1,1.36,1.36,0,0,0-.23-.41,1.1,1.1,0,0,0-.35-.26,1.13,1.13,0,0,0-.45-.09,1.06,1.06,0,0,0-.45.09,1,1,0,0,0-.35.26,1.18,1.18,0,0,0-.23.41,1.55,1.55,0,0,0,0,1,1.13,1.13,0,0,0,.23.4,1,1,0,0,0,.35.26A1.06,1.06,0,0,0,6.31,25.93Z"/><path class="cls-2" d="M9.66,26.17a1.5,1.5,0,0,1-.37-.05A1,1,0,0,1,9,26a.68.68,0,0,1-.31-.6A.68.68,0,0,1,8.79,25a1,1,0,0,1,.39-.32,3,3,0,0,1,.68-.21,9.87,9.87,0,0,1,1-.14,2,2,0,0,0,0-.35,1.11,1.11,0,0,0-.14-.29.79.79,0,0,0-.27-.2,1,1,0,0,0-.41-.07,1.73,1.73,0,0,0-.32,0l-.3.1a2.1,2.1,0,0,0-.26.13l-.21.13-.12-.2L9,23.43l.29-.13.35-.11a1.65,1.65,0,0,1,.38-.05,1.28,1.28,0,0,1,.5.09.91.91,0,0,1,.33.24.87.87,0,0,1,.2.35,1.49,1.49,0,0,1,.06.43V26.1h-.22l0-.44h0a2.72,2.72,0,0,1-.57.35A1.35,1.35,0,0,1,9.66,26.17Zm.05-.23a1.84,1.84,0,0,0,1.16-.52v-.93c-.37,0-.68.08-.92.13a2.23,2.23,0,0,0-.6.19.77.77,0,0,0-.32.24.5.5,0,0,0-.1.31.45.45,0,0,0,.07.27.46.46,0,0,0,.17.17,1,1,0,0,0,.26.11A1.27,1.27,0,0,0,9.71,25.94Z"/><path class="cls-2" d="M12.45,26.1v-4h1.09a2.12,2.12,0,0,1,.53.05,1.13,1.13,0,0,1,.4.18.9.9,0,0,1,.26.32,1.09,1.09,0,0,1,.09.47,1,1,0,0,1-.29.74,1.26,1.26,0,0,1-.78.31l1.13,1.89h-.23l-1.12-1.88h-.89V26.1Zm.19-2h.83a1.46,1.46,0,0,0,.85-.22.82.82,0,0,0,.29-.68.72.72,0,0,0-.29-.66,1.55,1.55,0,0,0-.85-.2h-.83Z"/><path class="cls-2" d="M17.29,26.17a1.81,1.81,0,0,1-.58-.1,1.5,1.5,0,0,1-.48-.3,1.56,1.56,0,0,1-.32-.47,1.71,1.71,0,0,1,0-1.26,1.33,1.33,0,0,1,.31-.48,1.31,1.31,0,0,1,.46-.3,1.4,1.4,0,0,1,.54-.1,1.46,1.46,0,0,1,.52.09,1.07,1.07,0,0,1,.4.26,1.15,1.15,0,0,1,.26.41,1.6,1.6,0,0,1,.09.56v.09s0,.06,0,.1H16a1.48,1.48,0,0,0,.11.57,1.38,1.38,0,0,0,.29.41,1.14,1.14,0,0,0,.42.26,1.33,1.33,0,0,0,.49.09,1.59,1.59,0,0,0,.55-.09,2,2,0,0,0,.44-.23l.09.15-.2.12a1.33,1.33,0,0,1-.24.11,2,2,0,0,1-.29.08A1.83,1.83,0,0,1,17.29,26.17Zm-.07-2.85a1.26,1.26,0,0,0-.43.08,1.14,1.14,0,0,0-.38.23,1.41,1.41,0,0,0-.29.38,1.27,1.27,0,0,0-.13.49h2.33a1.27,1.27,0,0,0-.33-.89A1.08,1.08,0,0,0,17.22,23.32Z"/><path class="cls-2" d="M20.84,26.17A2.29,2.29,0,0,1,20,26a2.91,2.91,0,0,1-.61-.32l.11-.14a2.05,2.05,0,0,0,.54.31,2.21,2.21,0,0,0,.78.12,1.58,1.58,0,0,0,.41-.05.83.83,0,0,0,.3-.14.54.54,0,0,0,.18-.19.46.46,0,0,0,.06-.23.64.64,0,0,0,0-.2.39.39,0,0,0-.14-.18,1,1,0,0,0-.32-.17,4.07,4.07,0,0,0-.57-.15,2.63,2.63,0,0,1-.84-.29.55.55,0,0,1-.31-.5.62.62,0,0,1,.07-.29.59.59,0,0,1,.19-.23,1.07,1.07,0,0,1,.34-.16,1.77,1.77,0,0,1,.49-.06,2,2,0,0,1,.58.09,1.79,1.79,0,0,1,.5.25l-.1.15a1.7,1.7,0,0,0-.44-.24,1.55,1.55,0,0,0-.55-.09,1.61,1.61,0,0,0-.42.05.91.91,0,0,0-.28.13.34.34,0,0,0-.14.18.54.54,0,0,0,0,.21.42.42,0,0,0,.24.38,2.4,2.4,0,0,0,.75.25,3.74,3.74,0,0,1,.61.16,1.49,1.49,0,0,1,.38.19.47.47,0,0,1,.18.22.68.68,0,0,1,0,.29.56.56,0,0,1-.08.3.74.74,0,0,1-.22.25,1.2,1.2,0,0,1-.36.17A1.49,1.49,0,0,1,20.84,26.17Z"/><path class="cls-2" d="M24.9,26.17a1.26,1.26,0,0,1-.48-.08.81.81,0,0,1-.31-.23A.85.85,0,0,1,24,25.5,2.16,2.16,0,0,1,23.9,25V23.4H23v-.15l.89,0,0-1h.16v1h1.57v.17H24.08v1.66a1.51,1.51,0,0,0,0,.39.68.68,0,0,0,.12.3.58.58,0,0,0,.25.18,1,1,0,0,0,.42.07,1.87,1.87,0,0,0,.42,0,2.29,2.29,0,0,0,.37-.12l.06.15a2.67,2.67,0,0,1-.4.13A2.09,2.09,0,0,1,24.9,26.17Z"/><path class="cls-2" d="M27.69,26.17a1.5,1.5,0,0,1-.37-.05A.84.84,0,0,1,27,26a.72.72,0,0,1-.23-.23.69.69,0,0,1-.09-.36.75.75,0,0,1,.13-.42,1,1,0,0,1,.4-.3,2.9,2.9,0,0,1,.7-.22,7.63,7.63,0,0,1,1-.14,2.21,2.21,0,0,0,0-.37.81.81,0,0,0-.15-.31.6.6,0,0,0-.27-.22.91.91,0,0,0-.43-.09,1.86,1.86,0,0,0-.34,0,1.54,1.54,0,0,0-.3.11,1.69,1.69,0,0,0-.27.13l-.21.13-.09-.14.2-.14.29-.14a2.89,2.89,0,0,1,.35-.11,1.64,1.64,0,0,1,.38,0,1.2,1.2,0,0,1,.49.08.91.91,0,0,1,.33.24,1,1,0,0,1,.18.34,1.47,1.47,0,0,1,.06.42V26.1H29l0-.45h0a2.83,2.83,0,0,1-.28.2l-.3.16a1.75,1.75,0,0,1-.32.12A1.86,1.86,0,0,1,27.69,26.17Zm0-.17a2,2,0,0,0,1.23-.55v-1c-.39,0-.71.09-1,.14a3,3,0,0,0-.63.19,1,1,0,0,0-.34.26.57.57,0,0,0-.1.34.51.51,0,0,0,.07.28.58.58,0,0,0,.19.19,1,1,0,0,0,.26.11A1.53,1.53,0,0,0,27.7,26Z"/><path class="cls-2" d="M31.29,26.17a1,1,0,0,1-.78-.28,1.22,1.22,0,0,1-.26-.87V23.23h.18V25a1.21,1.21,0,0,0,.2.76.8.8,0,0,0,.66.25,1.06,1.06,0,0,0,.31,0,1.17,1.17,0,0,0,.28-.13,1.85,1.85,0,0,0,.29-.22c.09-.08.19-.19.3-.31V23.23h.18V26.1h-.16l0-.58h0a2.41,2.41,0,0,1-.51.46A1.1,1.1,0,0,1,31.29,26.17Z"/><path class="cls-2" d="M34.33,26.1V23.23h.15l0,.72h0a2.1,2.1,0,0,1,.58-.57,1.43,1.43,0,0,1,.79-.22,1.56,1.56,0,0,1,.3,0,1.11,1.11,0,0,1,.29.1l-.06.16-.27-.08a1.19,1.19,0,0,0-.28,0,1.33,1.33,0,0,0-.71.21,2.07,2.07,0,0,0-.65.71V26.1Z"/><path class="cls-2" d="M38.49,26.17a1.5,1.5,0,0,1-.37-.05A.84.84,0,0,1,37.8,26a.72.72,0,0,1-.23-.23.69.69,0,0,1-.09-.36.75.75,0,0,1,.13-.42,1,1,0,0,1,.4-.3,2.9,2.9,0,0,1,.7-.22,7.63,7.63,0,0,1,1-.14,2.21,2.21,0,0,0,0-.37.81.81,0,0,0-.15-.31.6.6,0,0,0-.27-.22.91.91,0,0,0-.43-.09,1.86,1.86,0,0,0-.34,0,1.92,1.92,0,0,0-.31.11,2.1,2.1,0,0,0-.26.13l-.21.13-.09-.14.2-.14.29-.14a2.89,2.89,0,0,1,.35-.11,1.64,1.64,0,0,1,.38,0,1.2,1.2,0,0,1,.49.08.91.91,0,0,1,.33.24,1,1,0,0,1,.18.34,1.47,1.47,0,0,1,.06.42V26.1h-.16l0-.45h0a2.83,2.83,0,0,1-.28.2l-.3.16a1.75,1.75,0,0,1-.32.12A1.86,1.86,0,0,1,38.49,26.17Zm0-.17a2,2,0,0,0,1.23-.55v-1c-.39,0-.71.09-1,.14a3,3,0,0,0-.63.19,1,1,0,0,0-.34.26.57.57,0,0,0-.1.34.51.51,0,0,0,.07.28.58.58,0,0,0,.19.19,1,1,0,0,0,.26.11A1.53,1.53,0,0,0,38.5,26Z"/><path class="cls-2" d="M41.17,26.1V23.23h.15l0,.57h0l.26-.25a2.47,2.47,0,0,1,.27-.21,1.55,1.55,0,0,1,.29-.14,1.24,1.24,0,0,1,.33,0,1,1,0,0,1,.79.27,1.28,1.28,0,0,1,.26.88V26.1h-.18V24.33a1.17,1.17,0,0,0-.21-.76.81.81,0,0,0-.66-.25,1,1,0,0,0-.3.05.88.88,0,0,0-.28.13,2.26,2.26,0,0,0-.28.21c-.1.09-.2.19-.31.31V26.1Z"/><path class="cls-2" d="M46.5,26.17a1.26,1.26,0,0,1-.48-.08.81.81,0,0,1-.31-.23.85.85,0,0,1-.16-.36,2.16,2.16,0,0,1,0-.46V23.4h-.89v-.15l.89,0,0-1h.16v1h1.57v.17H45.68v1.66a1.51,1.51,0,0,0,0,.39.68.68,0,0,0,.12.3.58.58,0,0,0,.25.18,1,1,0,0,0,.42.07,1.82,1.82,0,0,0,.42,0,2.29,2.29,0,0,0,.37-.12l.06.15a2.67,2.67,0,0,1-.4.13A2.09,2.09,0,0,1,46.5,26.17Z"/></g></g></svg>