<svg xmlns="http://www.w3.org/2000/svg" viewBox="0 0 47.06 41.61"><defs><style>.cls-1,.cls-3{fill:#fff;}.cls-1{fill-rule:evenodd;}.cls-2{fill:#773a2e;}</style></defs><g id="Capa_2" data-name="Capa 2"><g id="Layer_1" data-name="Layer 1"><path class="cls-1" d="M34.78,19.72c8.51,2.55,8.95-7.26,5-10.87.58-1.56-.28-3.91-2.36-5.94C34.71.32,31.06-.74,29.23.55h0C27.38,1.86,28.08,5,30.74,7.61a9.34,9.34,0,0,0,6.45,2.91,7.89,7.89,0,0,1,2.37,1.71C46,19,36.62,19.7,19.94,10.31.59-.61-2,6.52,1.13,11.92c1.84,1.46.6,4.15,2.43,5.51C5.7,19,8.7,21,11.55,20.79a42.86,42.86,0,0,1-6.84-4.46.54.54,0,0,1-.19-.21.76.76,0,0,1-.13-.31v-.06a.41.41,0,0,1,0-.27.39.39,0,0,1,.09-.28l1.76-3v0a.33.33,0,0,1,.1-.15l.19-.1a.64.64,0,0,1,.26,0,1.12,1.12,0,0,1,.32.17v0l8.48,6.27h0a.93.93,0,0,0,.37.16c0-2-5.35-5.64-7.58-7.29l-1.43-1h0C5.26,9.1,4,11.37,2.12,10.07c-3.93-2.53,1-4.48,9.53-2.14,10.66,2.89,15.86,9.6,23.13,11.79ZM6.46,14.92a1,1,0,0,0-.62-.17h0a1,1,0,0,0-.61.24h0a.66.66,0,0,0-.2.52H5a.64.64,0,0,0,.27.5c10.34,6.27,10.54,6.39,1.16-1.09Zm1.06-1.81a.88.88,0,0,0-.62-.19h0a.75.75,0,0,0-.58.24h0a.68.68,0,0,0-.23.52.7.7,0,0,0,.3.49h0c11.94,8.14,10.69,6.93,1.13-1.06Z"/><text/><path class="cls-2" d="M.84,28.83v-4H1l1.65,2.91.44.77h0c0-.19,0-.38,0-.56V24.87h.17v4H3.09L1.44,25.91,1,25.14H1c0,.19,0,.38,0,.55s0,.35,0,.54v2.6Z"/><path class="cls-2" d="M5.66,28.9a1.56,1.56,0,0,1-.53-.1,1.32,1.32,0,0,1-.44-.3,1.58,1.58,0,0,1-.3-.47,1.81,1.81,0,0,1-.11-.63,1.79,1.79,0,0,1,.11-.64,1.63,1.63,0,0,1,.3-.48A1.3,1.3,0,0,1,5.13,26a1.36,1.36,0,0,1,.53-.11,1.32,1.32,0,0,1,.53.11,1.28,1.28,0,0,1,.74.77A1.79,1.79,0,0,1,7,27.4a1.81,1.81,0,0,1-.11.63,1.27,1.27,0,0,1-.3.47,1.32,1.32,0,0,1-.44.3A1.51,1.51,0,0,1,5.66,28.9Zm0-.17a1,1,0,0,0,.47-.1,1,1,0,0,0,.38-.27,1.27,1.27,0,0,0,.25-.42,1.53,1.53,0,0,0,.09-.54,1.63,1.63,0,0,0-.09-.55,1.27,1.27,0,0,0-.25-.42,1.17,1.17,0,0,0-.38-.28,1.15,1.15,0,0,0-.94,0,1.17,1.17,0,0,0-.38.28,1.46,1.46,0,0,0-.25.42,1.63,1.63,0,0,0-.09.55,1.53,1.53,0,0,0,.09.54,1.46,1.46,0,0,0,.25.42,1,1,0,0,0,.38.27A1,1,0,0,0,5.66,28.73Z"/><path class="cls-2" d="M9,28.9a1.57,1.57,0,0,1-.37,0,.92.92,0,0,1-.32-.14.76.76,0,0,1-.23-.24A.72.72,0,0,1,8,28.12a.68.68,0,0,1,.13-.42,1,1,0,0,1,.39-.31,3.69,3.69,0,0,1,.7-.21,7.63,7.63,0,0,1,1-.14,1.5,1.5,0,0,0,0-.37,1,1,0,0,0-.14-.31.69.69,0,0,0-.28-.22.91.91,0,0,0-.43-.09,1.75,1.75,0,0,0-.33,0l-.31.1-.27.14-.2.13-.1-.14.2-.14L8.67,26,9,25.93a1.73,1.73,0,0,1,.38-.05,1.16,1.16,0,0,1,.49.09.83.83,0,0,1,.33.24.86.86,0,0,1,.18.34,1.42,1.42,0,0,1,.06.42v1.86H10.3l0-.45h0l-.27.2-.31.16a1.75,1.75,0,0,1-.32.12A1.86,1.86,0,0,1,9,28.9Zm0-.17a1.94,1.94,0,0,0,1.22-.55v-1a8.28,8.28,0,0,0-1,.14,2.92,2.92,0,0,0-.64.19,1,1,0,0,0-.34.26.57.57,0,0,0-.1.34.51.51,0,0,0,.07.28.58.58,0,0,0,.19.19,1.19,1.19,0,0,0,.26.11A1.55,1.55,0,0,0,9.06,28.73Z"/><path class="cls-3" d="M11.8,28.83v-4h1.1a2.09,2.09,0,0,1,.52.05,1.13,1.13,0,0,1,.4.18.82.82,0,0,1,.26.32,1.08,1.08,0,0,1,.09.46,1,1,0,0,1-.29.75,1.32,1.32,0,0,1-.78.31l1.13,1.89H14L12.88,27H12v1.88Zm.2-2h.82a1.46,1.46,0,0,0,.85-.22.8.8,0,0,0,.29-.69.69.69,0,0,0-.29-.65,1.55,1.55,0,0,0-.85-.2H12Z"/><path class="cls-3" d="M16.64,28.9a1.86,1.86,0,0,1-.58-.1,1.5,1.5,0,0,1-.48-.3,1.56,1.56,0,0,1-.32-.47,1.71,1.71,0,0,1,0-1.26,1.47,1.47,0,0,1,.31-.48,1.47,1.47,0,0,1,1-.41,1.46,1.46,0,0,1,.52.1,1,1,0,0,1,.4.26,1.15,1.15,0,0,1,.26.41,1.6,1.6,0,0,1,.09.56v.09a.38.38,0,0,1,0,.1h-2.5a1.49,1.49,0,0,0,.12.57,1.09,1.09,0,0,0,.29.41,1,1,0,0,0,.41.26,1.33,1.33,0,0,0,.49.09,1.59,1.59,0,0,0,.55-.09,2.38,2.38,0,0,0,.45-.23l.08.15-.2.12a1.33,1.33,0,0,1-.24.11,2,2,0,0,1-.29.08A1.83,1.83,0,0,1,16.64,28.9Zm-.07-2.85a1.26,1.26,0,0,0-.43.08,1.25,1.25,0,0,0-.38.23,1.29,1.29,0,0,0-.28.37,1.2,1.2,0,0,0-.14.5h2.33a1.27,1.27,0,0,0-.33-.89A1.08,1.08,0,0,0,16.57,26.05Z"/><path class="cls-3" d="M20.19,28.9a2.2,2.2,0,0,1-.8-.14,2.48,2.48,0,0,1-.61-.32l.1-.14a2.05,2.05,0,0,0,.54.31,2.21,2.21,0,0,0,.78.12,1.73,1.73,0,0,0,.42-.05,1.12,1.12,0,0,0,.29-.14.54.54,0,0,0,.18-.19.49.49,0,0,0,.06-.23.64.64,0,0,0,0-.2.36.36,0,0,0-.13-.18,1.18,1.18,0,0,0-.32-.17,4.49,4.49,0,0,0-.57-.15,2.61,2.61,0,0,1-.85-.29.57.57,0,0,1-.31-.5.73.73,0,0,1,.07-.29.62.62,0,0,1,.2-.23,1,1,0,0,1,.33-.16,1.77,1.77,0,0,1,.5-.07,2,2,0,0,1,1.08.35l-.11.15a1.58,1.58,0,0,0-1-.33,1.73,1.73,0,0,0-.42.05.85.85,0,0,0-.27.13.43.43,0,0,0-.15.18.52.52,0,0,0,0,.21.43.43,0,0,0,.23.38,2.4,2.4,0,0,0,.75.25,4.21,4.21,0,0,1,.62.16,2.13,2.13,0,0,1,.37.18.54.54,0,0,1,.18.23.68.68,0,0,1,.05.29.66.66,0,0,1-.07.3.9.9,0,0,1-.23.25,1.2,1.2,0,0,1-.36.17A1.45,1.45,0,0,1,20.19,28.9Z"/><path class="cls-3" d="M24.25,28.9a1.34,1.34,0,0,1-.48-.08.81.81,0,0,1-.31-.23,1,1,0,0,1-.16-.36,2.16,2.16,0,0,1-.05-.46V26.13h-.89V26l.89,0,0-1h.15v1H25v.17H23.43v1.66a1.51,1.51,0,0,0,0,.39.68.68,0,0,0,.12.3.55.55,0,0,0,.26.18.94.94,0,0,0,.41.07,1.76,1.76,0,0,0,.42,0,2.29,2.29,0,0,0,.37-.12l.06.15a2.67,2.67,0,0,1-.4.13A2.09,2.09,0,0,1,24.25,28.9Z"/><path class="cls-3" d="M27,28.9a1.57,1.57,0,0,1-.37,0,.92.92,0,0,1-.32-.14.76.76,0,0,1-.23-.24.72.72,0,0,1-.08-.35.68.68,0,0,1,.13-.42,1,1,0,0,1,.39-.31,3.69,3.69,0,0,1,.7-.21,7.63,7.63,0,0,1,1-.14,1.5,1.5,0,0,0,0-.37,1,1,0,0,0-.14-.31.69.69,0,0,0-.28-.22.91.91,0,0,0-.43-.09,1.75,1.75,0,0,0-.33,0l-.31.1-.27.14-.2.13-.1-.14.2-.14.29-.14.35-.11a1.73,1.73,0,0,1,.38-.05,1.16,1.16,0,0,1,.49.09.83.83,0,0,1,.33.24.86.86,0,0,1,.18.34,1.42,1.42,0,0,1,.06.42v1.86H28.3l0-.45h0l-.27.2-.31.16a1.75,1.75,0,0,1-.32.12A1.86,1.86,0,0,1,27,28.9Zm0-.17a1.94,1.94,0,0,0,1.22-.55v-1a8.28,8.28,0,0,0-1,.14,2.92,2.92,0,0,0-.64.19,1,1,0,0,0-.34.26.57.57,0,0,0-.1.34.51.51,0,0,0,.07.28.58.58,0,0,0,.19.19,1.19,1.19,0,0,0,.26.11A1.55,1.55,0,0,0,27.06,28.73Z"/><path class="cls-3" d="M30.65,28.9a1,1,0,0,1-.79-.28,1.27,1.27,0,0,1-.26-.87V26h.18v1.76a1.17,1.17,0,0,0,.21.76.78.78,0,0,0,.66.25,1,1,0,0,0,.3,0,1.23,1.23,0,0,0,.29-.13,1.79,1.79,0,0,0,.28-.22,2.23,2.23,0,0,0,.3-.31V26H32v2.87h-.15l0-.58h0a2.46,2.46,0,0,1-.52.46A1.09,1.09,0,0,1,30.65,28.9Z"/><path class="cls-3" d="M33.68,28.83V26h.16l0,.72h0a2.1,2.1,0,0,1,.58-.57,1.47,1.47,0,0,1,.8-.23l.29,0a1,1,0,0,1,.29.1l-.06.16-.27-.08a1.14,1.14,0,0,0-.28,0,1.25,1.25,0,0,0-.71.21,2.17,2.17,0,0,0-.65.71v1.84Z"/><path class="cls-3" d="M37.84,28.9a1.57,1.57,0,0,1-.37,0,.92.92,0,0,1-.32-.14.76.76,0,0,1-.23-.24.63.63,0,0,1-.08-.35A.68.68,0,0,1,37,27.7a1,1,0,0,1,.39-.31,3.69,3.69,0,0,1,.7-.21,7.63,7.63,0,0,1,1-.14,1.5,1.5,0,0,0,0-.37,1,1,0,0,0-.14-.31.69.69,0,0,0-.28-.22.91.91,0,0,0-.43-.09,1.75,1.75,0,0,0-.33,0l-.31.1-.27.14-.2.13-.1-.14.2-.14.29-.14.35-.11a1.73,1.73,0,0,1,.38-.05,1.16,1.16,0,0,1,.49.09.83.83,0,0,1,.33.24.86.86,0,0,1,.18.34,1.42,1.42,0,0,1,.06.42v1.86H39.1l0-.45h0l-.27.2-.31.16a1.75,1.75,0,0,1-.32.12A1.86,1.86,0,0,1,37.84,28.9Zm0-.17a1.94,1.94,0,0,0,1.22-.55v-1a8.28,8.28,0,0,0-1,.14,2.92,2.92,0,0,0-.64.19,1,1,0,0,0-.34.26.57.57,0,0,0-.1.34.51.51,0,0,0,.07.28.58.58,0,0,0,.19.19,1.19,1.19,0,0,0,.26.11A1.55,1.55,0,0,0,37.86,28.73Z"/><path class="cls-3" d="M40.52,28.83V26h.16l0,.57h0l.25-.25a2.47,2.47,0,0,1,.27-.21,1.64,1.64,0,0,1,.3-.14,1.14,1.14,0,0,1,.33-.05,1,1,0,0,1,.78.28,1.28,1.28,0,0,1,.26.88v1.79h-.18V27.06a1.23,1.23,0,0,0-.2-.76.84.84,0,0,0-.66-.25,1.55,1.55,0,0,0-.31,0,2.28,2.28,0,0,0-.28.13c-.09.06-.18.14-.28.22s-.2.19-.31.31v2.08Z"/><path class="cls-3" d="M45.85,28.9a1.34,1.34,0,0,1-.48-.08.81.81,0,0,1-.31-.23,1,1,0,0,1-.16-.36,2.16,2.16,0,0,1,0-.46V26.13H44V26l.89,0,0-1H45v1H46.6v.17H45v1.66a1.51,1.51,0,0,0,0,.39.68.68,0,0,0,.12.3.55.55,0,0,0,.26.18.94.94,0,0,0,.41.07,1.76,1.76,0,0,0,.42,0,2.29,2.29,0,0,0,.37-.12l.06.15a2.67,2.67,0,0,1-.4.13A2,2,0,0,1,45.85,28.9Z"/></g></g></svg>