<svg xmlns="http://www.w3.org/2000/svg" viewBox="0 0 78 34.13"><defs><style>.cls-1,.cls-2{fill:#fff;}.cls-1{fill-rule:evenodd;}</style></defs><g id="Capa_2" data-name="Capa 2"><g id="Layer_1" data-name="Layer 1"><path class="cls-1" d="M49.4,18c7.74,2.33,8.14-6.61,4.53-9.89.52-1.42-.26-3.56-2.15-5.41C49.33.29,46-.67,44.34.5h0c-1.68,1.19-1.05,4.07,1.37,6.43a8.52,8.52,0,0,0,5.87,2.65,7.13,7.13,0,0,1,2.16,1.55c5.85,6.14-2.67,6.8-17.86-1.75-17.62-9.94-20-3.45-17.12,1.47,1.67,1.33.54,3.78,2.21,5,2,1.47,4.68,3.25,7.28,3.06A39.56,39.56,0,0,1,22,14.87a.49.49,0,0,1-.18-.2.69.69,0,0,1-.11-.28l0-.06a.48.48,0,0,1,0-.24.38.38,0,0,1,.09-.25l1.6-2.77v0c0-.06.06-.1.08-.14l.17-.08a.57.57,0,0,1,.25,0,1,1,0,0,1,.29.16v0l7.72,5.7h0a.89.89,0,0,0,.33.15c0-1.81-4.87-5.14-6.9-6.64l-1.3-1h0c-1.52-1-2.68,1.06-4.38-.12-3.58-2.31.88-4.08,8.68-1.95C38,9.85,42.77,16,49.4,18ZM23.61,13.59a.92.92,0,0,0-.57-.16h0a.89.89,0,0,0-.55.22h0a.58.58,0,0,0-.18.47h0a.6.6,0,0,0,.25.45c9.41,5.72,9.59,5.82,1.05-1Zm1-1.66a.8.8,0,0,0-.56-.17h0a.71.71,0,0,0-.53.22h0a.58.58,0,0,0-.2.47.64.64,0,0,0,.27.45h0c10.87,7.41,9.73,6.31,1-1Z"/><path class="cls-2" d="M.74,29.59V23.05H2l1.73,3.67.59,1.4h0c0-.34-.06-.7-.1-1.09a11.17,11.17,0,0,1-.06-1.14V23.05H5.26v6.54H4L2.31,25.91l-.59-1.39h0c0,.36.06.72.1,1.1a10.6,10.6,0,0,1,.06,1.11v2.86Z"/><path class="cls-2" d="M9,29.71a2.47,2.47,0,0,1-.93-.17,2.26,2.26,0,0,1-.79-.5,2.47,2.47,0,0,1-.55-.81,2.86,2.86,0,0,1-.2-1.09,2.9,2.9,0,0,1,.2-1.09,2.47,2.47,0,0,1,.55-.81,2.41,2.41,0,0,1,.79-.5,2.49,2.49,0,0,1,1.86,0,2.41,2.41,0,0,1,.79.5,2.3,2.3,0,0,1,.54.81,2.72,2.72,0,0,1,.21,1.09,2.68,2.68,0,0,1-.21,1.09,2.3,2.3,0,0,1-.54.81,2.26,2.26,0,0,1-.79.5A2.47,2.47,0,0,1,9,29.71Zm0-.94a1.11,1.11,0,0,0,.94-.44,2.25,2.25,0,0,0,0-2.38,1.21,1.21,0,0,0-1.88,0,2.25,2.25,0,0,0,0,2.38A1.11,1.11,0,0,0,9,28.77Z"/><path class="cls-2" d="M14.35,29.71a2,2,0,0,1-.66-.1,1.58,1.58,0,0,1-.52-.3,1.17,1.17,0,0,1-.34-.45,1.41,1.41,0,0,1-.12-.59,1.34,1.34,0,0,1,.19-.72,1.59,1.59,0,0,1,.6-.54,4.55,4.55,0,0,1,1.05-.36,11.15,11.15,0,0,1,1.55-.2,1,1,0,0,0-.3-.69,1.19,1.19,0,0,0-.87-.27,2.34,2.34,0,0,0-.82.16,5.15,5.15,0,0,0-.79.36l-.42-.77a6.61,6.61,0,0,1,1-.47,3.54,3.54,0,0,1,1.21-.21,2.13,2.13,0,0,1,1.57.55,2.14,2.14,0,0,1,.54,1.57v2.91h-.94L16.22,29h0a4.37,4.37,0,0,1-.86.52A2.43,2.43,0,0,1,14.35,29.71Zm.35-.9a1.68,1.68,0,0,0,.72-.16,4.1,4.1,0,0,0,.68-.44v-1a10.47,10.47,0,0,0-1.1.14,3.29,3.29,0,0,0-.7.21,1,1,0,0,0-.37.3.66.66,0,0,0-.11.36.52.52,0,0,0,.26.48A1.19,1.19,0,0,0,14.7,28.81Z"/><path class="cls-2" d="M19.17,29.59V23h1.88a4,4,0,0,1,.89.1,1.76,1.76,0,0,1,.68.3,1.39,1.39,0,0,1,.45.54,1.94,1.94,0,0,1,.15.8A1.64,1.64,0,0,1,22.76,26a2.07,2.07,0,0,1-1.23.55l1.82,3.06h-.54l-1.78-3h-1.4v3Zm.46-3.41h1.3a2.17,2.17,0,0,0,1.35-.35,1.29,1.29,0,0,0,.47-1.09,1.15,1.15,0,0,0-.47-1,2.49,2.49,0,0,0-1.35-.31h-1.3Z"/><path class="cls-2" d="M27.3,29.71a2.66,2.66,0,0,1-1-.17,2.32,2.32,0,0,1-.81-.49,2.4,2.4,0,0,1-.54-.8,2.71,2.71,0,0,1-.2-1.06,2.77,2.77,0,0,1,.2-1.05,2.44,2.44,0,0,1,.53-.79,2.28,2.28,0,0,1,.76-.5,2.38,2.38,0,0,1,.91-.18,2.52,2.52,0,0,1,.89.16,1.86,1.86,0,0,1,.68.44,1.88,1.88,0,0,1,.43.69,2.75,2.75,0,0,1,.15.93v.19a1.1,1.1,0,0,1,0,.18H25.22a2.24,2.24,0,0,0,.19.89,1.82,1.82,0,0,0,.46.65,1.9,1.9,0,0,0,.67.4,2.3,2.3,0,0,0,.79.13,2.43,2.43,0,0,0,.88-.14,3.38,3.38,0,0,0,.73-.38l.18.33a3.76,3.76,0,0,1-.75.4A2.79,2.79,0,0,1,27.3,29.71Zm-.12-4.66a2,2,0,0,0-.68.12,1.76,1.76,0,0,0-.58.36,2.1,2.1,0,0,0-.45.57,2.15,2.15,0,0,0-.23.78h3.68a2,2,0,0,0-.53-1.38A1.69,1.69,0,0,0,27.18,25.05Z"/><path class="cls-2" d="M33.19,29.71a3.61,3.61,0,0,1-1.35-.23,4.88,4.88,0,0,1-1-.53l.23-.32a3.68,3.68,0,0,0,.91.51,3.58,3.58,0,0,0,1.27.19,1.82,1.82,0,0,0,1.11-.28.82.82,0,0,0,.37-.67,1,1,0,0,0-.05-.3.59.59,0,0,0-.23-.28,1.7,1.7,0,0,0-.51-.26,6.7,6.7,0,0,0-.9-.25,4.24,4.24,0,0,1-1.42-.49,1,1,0,0,1-.5-.85,1.21,1.21,0,0,1,.11-.49,1.1,1.1,0,0,1,.34-.41,1.9,1.9,0,0,1,.59-.28,3.45,3.45,0,0,1,.84-.1,3.11,3.11,0,0,1,1,.17,3.63,3.63,0,0,1,.86.42l-.24.32a2.8,2.8,0,0,0-.73-.38,2.57,2.57,0,0,0-.9-.15,2.48,2.48,0,0,0-.66.08,1.32,1.32,0,0,0-.43.19.75.75,0,0,0-.23.28.71.71,0,0,0-.07.32.65.65,0,0,0,.39.6,4,4,0,0,0,1.19.39,10.27,10.27,0,0,1,1,.27,2.54,2.54,0,0,1,.62.32,1,1,0,0,1,.3.38,1.21,1.21,0,0,1,.09.48,1.06,1.06,0,0,1-.13.52,1.29,1.29,0,0,1-.38.43,2,2,0,0,1-.63.29A2.76,2.76,0,0,1,33.19,29.71Z"/><path class="cls-2" d="M40,29.71a2,2,0,0,1-.83-.14,1.25,1.25,0,0,1-.53-.39,1.52,1.52,0,0,1-.28-.6,3.84,3.84,0,0,1-.08-.79V25.17H36.8v-.34l1.46,0,.06-1.59h.37v1.59h2.56v.38H38.69v2.66a2.93,2.93,0,0,0,.06.63,1.19,1.19,0,0,0,.21.47.88.88,0,0,0,.41.29,1.76,1.76,0,0,0,.66.1,3.51,3.51,0,0,0,.68-.06,3,3,0,0,0,.6-.19l.12.34a3.28,3.28,0,0,1-.67.22A3.15,3.15,0,0,1,40,29.71Z"/><path class="cls-2" d="M44.59,29.71a2.27,2.27,0,0,1-.63-.08,1.51,1.51,0,0,1-.53-.24,1.13,1.13,0,0,1-.37-.41,1.29,1.29,0,0,1,.07-1.29,1.75,1.75,0,0,1,.65-.52,5.49,5.49,0,0,1,1.14-.36c.47-.09,1-.17,1.68-.23a2.12,2.12,0,0,0-.07-.57,1.4,1.4,0,0,0-.24-.49,1.07,1.07,0,0,0-.44-.33,1.68,1.68,0,0,0-.68-.13,2.33,2.33,0,0,0-.53.06,4.16,4.16,0,0,0-.5.16,3.61,3.61,0,0,0-.44.22l-.35.21-.2-.33a4.12,4.12,0,0,1,.36-.22,4.67,4.67,0,0,1,.5-.23,4.39,4.39,0,0,1,.58-.18,2.72,2.72,0,0,1,.63-.08,2,2,0,0,1,.82.15,1.69,1.69,0,0,1,.57.39,1.61,1.61,0,0,1,.32.59,2.36,2.36,0,0,1,.11.72v3.07h-.37l-.05-.72h0a5.26,5.26,0,0,1-1,.59A2.39,2.39,0,0,1,44.59,29.71Zm.08-.38a3,3,0,0,0,1.93-.87V26.92c-.61.06-1.13.13-1.54.21a4.66,4.66,0,0,0-1,.31,1.42,1.42,0,0,0-.54.41.89.89,0,0,0-.16.52.84.84,0,0,0,.11.44.92.92,0,0,0,.29.3,1.54,1.54,0,0,0,.42.17A2,2,0,0,0,44.67,29.33Z"/><path class="cls-2" d="M50.59,29.71c-1.15,0-1.72-.64-1.72-1.93v-3h.44v2.93a1.89,1.89,0,0,0,.31,1.2,1.27,1.27,0,0,0,1,.39,1.86,1.86,0,0,0,.48-.06,1.78,1.78,0,0,0,.45-.2,2.61,2.61,0,0,0,.44-.34c.15-.14.3-.3.47-.49V24.79h.44v4.8h-.37l0-.93h0a3.78,3.78,0,0,1-.85.76A1.85,1.85,0,0,1,50.59,29.71Z"/><path class="cls-2" d="M55.63,29.59v-4.8H56L56.06,26h0A3.27,3.27,0,0,1,57,25a2.43,2.43,0,0,1,1.3-.37,3.88,3.88,0,0,1,.48,0,1.6,1.6,0,0,1,.48.16l-.12.39a4.11,4.11,0,0,0-.45-.13,2.71,2.71,0,0,0-.46,0,2.22,2.22,0,0,0-1.15.34,3.54,3.54,0,0,0-1,1.16v3Z"/><path class="cls-2" d="M62.59,29.71a2.27,2.27,0,0,1-.63-.08,1.51,1.51,0,0,1-.53-.24,1.13,1.13,0,0,1-.37-.41,1.29,1.29,0,0,1,.07-1.29,1.75,1.75,0,0,1,.65-.52,5.49,5.49,0,0,1,1.14-.36c.47-.09,1-.17,1.68-.23a2.12,2.12,0,0,0-.07-.57,1.4,1.4,0,0,0-.24-.49,1.07,1.07,0,0,0-.44-.33,1.68,1.68,0,0,0-.68-.13,2.33,2.33,0,0,0-.53.06,4.16,4.16,0,0,0-.5.16,3.61,3.61,0,0,0-.44.22l-.35.21-.2-.33a4.12,4.12,0,0,1,.36-.22,4.67,4.67,0,0,1,.5-.23,4.39,4.39,0,0,1,.58-.18,2.72,2.72,0,0,1,.63-.08,2,2,0,0,1,.82.15,1.69,1.69,0,0,1,.57.39,1.61,1.61,0,0,1,.32.59,2.36,2.36,0,0,1,.11.72v3.07h-.37l0-.72h0a5.26,5.26,0,0,1-.95.59A2.39,2.39,0,0,1,62.59,29.71Zm.08-.38a3,3,0,0,0,1.93-.87V26.92c-.61.06-1.13.13-1.54.21a4.66,4.66,0,0,0-1,.31,1.42,1.42,0,0,0-.54.41.89.89,0,0,0-.16.52.84.84,0,0,0,.11.44.92.92,0,0,0,.29.3,1.54,1.54,0,0,0,.42.17A2,2,0,0,0,62.67,29.33Z"/><path class="cls-2" d="M67.05,29.59v-4.8h.38l0,.92h0a5.22,5.22,0,0,1,.86-.74,1.81,1.81,0,0,1,1-.3c1.15,0,1.73.65,1.73,1.93v3h-.45V26.66a1.89,1.89,0,0,0-.32-1.2,1.24,1.24,0,0,0-1-.39,1.85,1.85,0,0,0-.48.07,1.72,1.72,0,0,0-.44.2,3.08,3.08,0,0,0-.44.34c-.15.14-.31.29-.48.47v3.44Z"/><path class="cls-2" d="M76,29.71a2,2,0,0,1-.83-.14,1.25,1.25,0,0,1-.53-.39,1.52,1.52,0,0,1-.28-.6,3.84,3.84,0,0,1-.08-.79V25.17H72.8v-.34l1.46,0,.06-1.59h.37v1.59h2.56v.38H74.69v2.66a2.93,2.93,0,0,0,.06.63,1.19,1.19,0,0,0,.21.47.88.88,0,0,0,.41.29,1.76,1.76,0,0,0,.66.1,3.51,3.51,0,0,0,.68-.06,3,3,0,0,0,.6-.19l.12.34a3.28,3.28,0,0,1-.67.22A3.15,3.15,0,0,1,76,29.71Z"/></g></g></svg>