<svg id="Capa_1" data-name="Capa 1" xmlns="http://www.w3.org/2000/svg" xmlns:xlink="http://www.w3.org/1999/xlink" viewBox="0 0 198.45 154.47"><defs><style>.cls-1{fill:none;}.cls-2{fill:#783a2e;}.cls-3{fill:#37322c;}.cls-4{clip-path:url(#clip-path);}.cls-5{fill:#783b2f;}</style><clipPath id="clip-path"><path class="cls-1" d="M156.4,30.46c-2.82-15.29-17.9-27-36-27A39.55,39.55,0,0,0,98.78,9.71,33.05,33.05,0,0,0,74.93,0C57.65,0,43.59,12.4,43.59,27.64a24.11,24.11,0,0,0,.13,2.56c-15.13,2-26.78,13.48-26.78,27.36C16.94,72.8,31,85.2,48.28,85.2h3.18v37.22a11.86,11.86,0,0,0,11.85,11.85h71.82A11.86,11.86,0,0,0,147,122.42V85.2h3.18c17.28,0,31.34-12.4,31.34-27.64C181.51,44.19,170.71,33,156.4,30.46Z"/></clipPath></defs><path class="cls-2" d="M193.85,97c-1.81,4.83-6.29,6.64-35.76,21.61,5.58,1.47,13,6.84,23.57-.57,8.19-5.76,16.07-16.39,16.79-27.62-7.88,8-19.25,2.55-27.51,5.8-.32.12-12.25,5-13.25,20.7C184.77,100.05,187.84,102.33,193.85,97Z"/><path class="cls-2" d="M4.6,97c1.81,4.83,6.29,6.64,35.76,21.61-5.58,1.47-13,6.84-23.57-.57C8.6,112.28.72,101.65,0,90.42c7.88,8,19.25,2.55,27.51,5.8.32.12,12.25,5,13.25,20.7C13.68,100.05,10.61,102.33,4.6,97Z"/><path class="cls-3" d="M156.4,30.46c-2.82-15.29-17.9-27-36-27A39.55,39.55,0,0,0,98.78,9.71,33.05,33.05,0,0,0,74.93,0C57.65,0,43.59,12.4,43.59,27.64a24.11,24.11,0,0,0,.13,2.56c-15.13,2-26.78,13.48-26.78,27.36C16.94,72.8,31,85.2,48.28,85.2h3.18v37.22a11.86,11.86,0,0,0,11.85,11.85h71.82A11.86,11.86,0,0,0,147,122.42V85.2h3.18c17.28,0,31.34-12.4,31.34-27.64C181.51,44.19,170.71,33,156.4,30.46Z"/><g class="cls-4"><path class="cls-2" d="M85.3,46.73c-.55,0-1,.32-1,.72V72.22c0,.73-.83,1.33-1.86,1.33h0c-1,0-1.85-.6-1.85-1.33V47.45c0-.4-.44-.72-1-.72s-1,.32-1,.72V72.22c0,.73-.83,1.33-1.85,1.33h0c-1,0-1.85-.6-1.85-1.33V47.45c0-.4-.45-.72-1-.72s-1,.32-1,.72V72.22c0,.73-.83,1.33-1.85,1.33h0c-1,0-1.85-.6-1.85-1.33V47.45c0-.4-.45-.72-1-.72s-1,.32-1,.72V81.16a3.45,3.45,0,0,0,1.58,2.75L70,84.8c2.69,2,4.15,4.61,4,7.35l-2.59,61.43c-.09,2.16,2.32,3.94,5.31,3.94s5.4-1.78,5.31-3.94L79.47,92.15c-.11-2.74,1.35-5.4,4-7.35l1.23-.89a3.44,3.44,0,0,0,1.57-2.75V47.45C86.3,47.05,85.86,46.73,85.3,46.73Z"/><path class="cls-2" d="M131.25,73c0-12.84-7.82-26.26-17.48-26.26S96.3,60.15,96.3,73c0,9.49,4.27,16,10.4,18.77a6,6,0,0,1,3.62,5.69L108,153.58c-.09,2.16,2.32,3.94,5.31,3.94s5.41-1.78,5.32-3.94l-2.35-55.72a6,6,0,0,1,3.9-5.8C126.64,89.5,131.25,82.85,131.25,73Z"/></g><g id="Capa_2" data-name="Capa 2"><g id="Layer_1" data-name="Layer 1"><path class="cls-5" d="M32.75,154.28V141.89h2.31l3.25,6.94,1.12,2.64h0c0-.64-.08-1.33-.08-2.08s-.11-1.42-.11-2.13v-5.37h2.09v12.39H39l-3.25-7-1.09-2.61h0c0,.66.13,1.35.19,2.06s.12,1.4.13,2.1v5.44Z"/><path class="cls-5" d="M48.34,154.46a4.81,4.81,0,0,1-1.76-.32A4.42,4.42,0,0,1,45,153.2a4.53,4.53,0,0,1-1-1.57,5,5,0,0,1-.32-2.06,5.2,5.2,0,0,1,.4-2,4.39,4.39,0,0,1,1-1.57,4.62,4.62,0,0,1,1.57-1,4.83,4.83,0,0,1,3.51,0,4.62,4.62,0,0,1,1.57,1,4.68,4.68,0,0,1,1,1.57,5.32,5.32,0,0,1,.24,2,5.08,5.08,0,0,1-.4,2.06A4.1,4.1,0,0,1,50,154.14,4.76,4.76,0,0,1,48.34,154.46Zm0-1.77a2.09,2.09,0,0,0,1.76-.84,4.27,4.27,0,0,0,0-4.53,2.26,2.26,0,0,0-3.53,0,3.6,3.6,0,0,0-.65,2.25,3.56,3.56,0,0,0,.65,2.23,2.11,2.11,0,0,0,1.77.91Z"/><path class="cls-5" d="M58.44,154.46a4.09,4.09,0,0,1-1.26-.19,3.11,3.11,0,0,1-1-.57,2.45,2.45,0,0,1-.64-.85,2.77,2.77,0,0,1-.22-1.1,2.45,2.45,0,0,1,.36-1.37,2.85,2.85,0,0,1,1.13-1,7.84,7.84,0,0,1,2-.67,20.79,20.79,0,0,1,2.93-.38,2.09,2.09,0,0,0-.57-1.31,2.32,2.32,0,0,0-1.65-.5,4.21,4.21,0,0,0-1.57.3,11.63,11.63,0,0,0-1.48.68L55.68,146a10.91,10.91,0,0,1,1.94-.88,6.57,6.57,0,0,1,2.28-.41,3.94,3.94,0,0,1,3,1,4,4,0,0,1,1,3v5.53H62.13L62,153.14h0a9.1,9.1,0,0,1-1.57,1A4.53,4.53,0,0,1,58.44,154.46Zm.66-1.75a3.08,3.08,0,0,0,1.33-.3,7.43,7.43,0,0,0,1.31-.83v-1.9a16.17,16.17,0,0,0-2.08.25,4.71,4.71,0,0,0-1.32.41,1.82,1.82,0,0,0-.71.55,1.27,1.27,0,0,0-.2.69,1,1,0,0,0,.49.89A2.19,2.19,0,0,0,59.1,152.71Z"/><path class="cls-5" d="M67.52,154.28V141.8h3.56a6.61,6.61,0,0,1,1.66.19,3.47,3.47,0,0,1,1.31.56,2.76,2.76,0,0,1,.82,1,3.38,3.38,0,0,1,.29,1.57,3.15,3.15,0,0,1-.86,2.33A4.06,4.06,0,0,1,72,148.53l3.45,5.75h-1L71,148.51H68.39v5.77Zm.87-6.43h2.4a4,4,0,0,0,2.55-.67,2.41,2.41,0,0,0,.9-2.05,2.15,2.15,0,0,0-.9-2,4.47,4.47,0,0,0-2.55-.63h-2.4Z"/><path class="cls-5" d="M82.87,154.46a5.17,5.17,0,0,1-1.86-.32,4.48,4.48,0,0,1-1.57-.93,4.31,4.31,0,0,1-1-1.57,5.4,5.4,0,0,1,0-4,4.44,4.44,0,0,1,2.44-2.43,4.53,4.53,0,0,1,1.71-.33,4.6,4.6,0,0,1,1.68.28,3.54,3.54,0,0,1,2.09,2.14,5,5,0,0,1,.28,1.76v.49a1.93,1.93,0,0,1,0,.34h-7.7a4.21,4.21,0,0,0,.35,1.68,3.58,3.58,0,0,0,1,1.12,3.82,3.82,0,0,0,1.25.76,5.12,5.12,0,0,0,1.5.25,4.68,4.68,0,0,0,1.66-.29,5.71,5.71,0,0,0,1.37-.7l.35.63a7.62,7.62,0,0,1-1.42.73A5.42,5.42,0,0,1,82.87,154.46Zm-.24-8.79a3.66,3.66,0,0,0-1.27.23,3.52,3.52,0,0,0-1.12.66,3.85,3.85,0,0,0-.83,1.09,4,4,0,0,0-.44,1.48h7a3.64,3.64,0,0,0-1-2.61A3.08,3.08,0,0,0,82.63,145.67Z"/><path class="cls-5" d="M94,154.46a7,7,0,0,1-2.53-.43,9.13,9.13,0,0,1-1.94-1l.43-.6a6.9,6.9,0,0,0,1.73.94,6.65,6.65,0,0,0,2.39.38,3.46,3.46,0,0,0,2.09-.54,1.54,1.54,0,0,0,.7-1.25,2,2,0,0,0-.09-.59,1.11,1.11,0,0,0-.42-.51,3.7,3.7,0,0,0-1-.51,12.79,12.79,0,0,0-1.72-.45A7.94,7.94,0,0,1,91,149,1.79,1.79,0,0,1,90,147.4a2.21,2.21,0,0,1,.2-1,2,2,0,0,1,.65-.77,3.42,3.42,0,0,1,1.11-.52,6.37,6.37,0,0,1,1.57-.19,5.6,5.6,0,0,1,1.86.32A6.39,6.39,0,0,1,97,146l-.45.62a5.11,5.11,0,0,0-3.15-1,4.87,4.87,0,0,0-1.26.14,2.56,2.56,0,0,0-.8.38,1.31,1.31,0,0,0-.44.52,1.58,1.58,0,0,0-.12.61,1.23,1.23,0,0,0,.72,1.13,8.47,8.47,0,0,0,2.25.73,15.37,15.37,0,0,1,1.91.52,4.21,4.21,0,0,1,1.18.59,1.82,1.82,0,0,1,.59.73,2.25,2.25,0,0,1,.15.89,1.88,1.88,0,0,1-.25,1,2.28,2.28,0,0,1-.72.82,4,4,0,0,1-1.18.55A5.61,5.61,0,0,1,94,154.46Z"/><path class="cls-5" d="M106.76,154.46a4.25,4.25,0,0,1-1.57-.26,2.64,2.64,0,0,1-1-.73,3.32,3.32,0,0,1-.52-1.15,6.15,6.15,0,0,1-.15-1.48V145.9h-2.74v-.64h2.75l.11-3.08h.69v3h4.85v.72h-4.85v5a5.27,5.27,0,0,0,.13,1.18,1.94,1.94,0,0,0,.39.88,1.71,1.71,0,0,0,.77.56,3.5,3.5,0,0,0,1.24.19,6.13,6.13,0,0,0,1.29-.12,7.51,7.51,0,0,0,1.14-.35l.22.63a7.17,7.17,0,0,1-1.26.42A7.48,7.48,0,0,1,106.76,154.46Z"/><path class="cls-5" d="M115.47,154.46a4.64,4.64,0,0,1-1.17-.15,3.4,3.4,0,0,1-1-.45,2.23,2.23,0,0,1-1-1.89,2.22,2.22,0,0,1,.39-1.32,3.18,3.18,0,0,1,1.24-1,9.09,9.09,0,0,1,2.16-.7c1-.19,2.09-.33,3.14-.42a3.9,3.9,0,0,0-.14-1.08,2.13,2.13,0,0,0-.44-.92,2.09,2.09,0,0,0-.83-.64,3.18,3.18,0,0,0-1.29-.24,4.9,4.9,0,0,0-1,.13,5.14,5.14,0,0,0-.94.3,5.23,5.23,0,0,0-.82.41l-.66.39-.38-.61a7,7,0,0,1,.68-.43c.31-.16.62-.31.94-.44a10.51,10.51,0,0,1,1.09-.33,5.3,5.3,0,0,1,1.19-.14,3.87,3.87,0,0,1,1.58.27,2.79,2.79,0,0,1,1.06.74,3.2,3.2,0,0,1,.62,1.11,4.92,4.92,0,0,1,.19,1.37v5.83h-.7l-.09-1.35h0a11.31,11.31,0,0,1-1.79,1.1A4.66,4.66,0,0,1,115.47,154.46Zm.16-.71a5.77,5.77,0,0,0,3.65-1.65v-2.9a21.55,21.55,0,0,0-2.89.37,8,8,0,0,0-1.87.58,2.62,2.62,0,0,0-1,.77,1.75,1.75,0,0,0-.3,1,1.7,1.7,0,0,0,.21.82,1.58,1.58,0,0,0,.56.56,2.58,2.58,0,0,0,.79.32A3.76,3.76,0,0,0,115.63,153.75Z"/><path class="cls-5" d="M126.79,154.46q-3.23,0-3.23-3.64v-5.64h.83v5.53A3.64,3.64,0,0,0,125,153a2.4,2.4,0,0,0,2,.72,3,3,0,0,0,.89-.11,3.81,3.81,0,0,0,.85-.38,5.23,5.23,0,0,0,.83-.64c.29-.27.57-.57.9-.91v-6.48h.82v9.1h-.69l-.1-1.76h0a7.11,7.11,0,0,1-1.57,1.43A3.53,3.53,0,0,1,126.79,154.46Z"/><path class="cls-5" d="M136.31,154.28v-9.1H137l.09,2.23h0a6.18,6.18,0,0,1,1.83-1.77,4.44,4.44,0,0,1,2.43-.68,7.21,7.21,0,0,1,.93,0,3.69,3.69,0,0,1,.9.31L143,146a6,6,0,0,0-.83-.24,4.31,4.31,0,0,0-.88,0,4.08,4.08,0,0,0-2.17.65,6.34,6.34,0,0,0-2,2.18v5.69Z"/><path class="cls-5" d="M149.4,154.46a4.71,4.71,0,0,1-1.18-.15,3.34,3.34,0,0,1-1-.45,2.34,2.34,0,0,1-.7-.77,2.31,2.31,0,0,1-.26-1.12,2.16,2.16,0,0,1,.39-1.32,3.11,3.11,0,0,1,1.24-1A8.94,8.94,0,0,1,150,149c1-.19,2.09-.33,3.14-.42a3.89,3.89,0,0,0-.12-1.08,2.38,2.38,0,0,0-.44-.92,2.16,2.16,0,0,0-.83-.64,3.18,3.18,0,0,0-1.29-.24,4.9,4.9,0,0,0-1,.13,5.14,5.14,0,0,0-.94.3,4.83,4.83,0,0,0-.82.41l-.66.39-.38-.61a6,6,0,0,1,.68-.43,10.08,10.08,0,0,1,.94-.44,10.51,10.51,0,0,1,1.09-.33,5.3,5.3,0,0,1,1.19-.14,3.83,3.83,0,0,1,1.57.27,2.83,2.83,0,0,1,1.07.74,3.37,3.37,0,0,1,.62,1.11,4.91,4.91,0,0,1,.18,1.37v5.83h-.69l-.09-1.35h0a9.93,9.93,0,0,1-1.78,1.1A4.71,4.71,0,0,1,149.4,154.46Zm.16-.71a5.71,5.71,0,0,0,3.63-1.65v-2.9a21.6,21.6,0,0,0-2.89.4,8.11,8.11,0,0,0-1.87.58,2.46,2.46,0,0,0-1,.77,1.67,1.67,0,0,0-.29,1,1.56,1.56,0,0,0,.2.82,1.53,1.53,0,0,0,.57.56,2.22,2.22,0,0,0,.78.32,3.69,3.69,0,0,0,.93.11Z"/><path class="cls-5" d="M157.86,154.28v-9.1h.71l.09,1.73h0a10,10,0,0,1,1.57-1.4,3.5,3.5,0,0,1,1.94-.55q3.26,0,3.25,3.63v5.69h-.85V148.7a3.62,3.62,0,0,0-.44-2.28,2.39,2.39,0,0,0-2-.72,3,3,0,0,0-.9.11,4.34,4.34,0,0,0-.82.38,6.33,6.33,0,0,0-.83.64c-.28.27-.6.57-.91.9v6.55Z"/><path class="cls-5" d="M174.68,154.46a4.21,4.21,0,0,1-1.57-.26,2.64,2.64,0,0,1-1-.73,2.92,2.92,0,0,1-.52-1.15,6.17,6.17,0,0,1-.17-1.48V145.9h-2.74v-.64h2.77l.11-3h.69v2.92h4.83v.72h-4.83v5a6.73,6.73,0,0,0,.11,1.18,2.22,2.22,0,0,0,.41.88,1.66,1.66,0,0,0,.77.56,3.5,3.5,0,0,0,1.24.19,6.88,6.88,0,0,0,1.29-.12,7.06,7.06,0,0,0,1.13-.35l.22.63a6.8,6.8,0,0,1-1.25.42A7.63,7.63,0,0,1,174.68,154.46Z"/></g></g></svg>