<svg xmlns="http://www.w3.org/2000/svg" viewBox="0 0 42.18 20.81"><defs><style>.cls-1{fill:#773a2e;fill-rule:evenodd;}</style></defs><g id="Capa_2" data-name="Capa 2"><g id="Layer_1" data-name="Layer 1"><path class="cls-1" d="M34.78,19.72c8.51,2.55,8.95-7.26,5-10.87.58-1.56-.28-3.91-2.36-5.94C34.71.32,31.06-.74,29.23.55h0C27.38,1.86,28.08,5,30.74,7.61a9.34,9.34,0,0,0,6.45,2.91,7.89,7.89,0,0,1,2.37,1.71C46,19,36.62,19.7,19.94,10.31.59-.61-2,6.52,1.13,11.92c1.84,1.46.6,4.15,2.43,5.51C5.7,19,8.7,21,11.55,20.79a42.86,42.86,0,0,1-6.84-4.46.54.54,0,0,1-.19-.21.76.76,0,0,1-.13-.31v-.06a.41.41,0,0,1,0-.27.39.39,0,0,1,.09-.28l1.76-3v0a.33.33,0,0,1,.1-.15l.19-.1a.64.64,0,0,1,.26,0,1.12,1.12,0,0,1,.32.17v0l8.48,6.27h0a.93.93,0,0,0,.37.16c0-2-5.35-5.64-7.58-7.29l-1.43-1h0C5.26,9.1,4,11.37,2.12,10.07c-3.93-2.53,1-4.48,9.53-2.14,10.66,2.89,15.86,9.6,23.13,11.79ZM6.46,14.92a1,1,0,0,0-.62-.17h0a1,1,0,0,0-.61.24h0a.66.66,0,0,0-.2.52H5a.64.64,0,0,0,.27.5c10.34,6.27,10.54,6.39,1.16-1.09Zm1.06-1.81a.88.88,0,0,0-.62-.19h0a.75.75,0,0,0-.58.24h0a.68.68,0,0,0-.23.52.7.7,0,0,0,.3.49h0c11.94,8.14,10.69,6.93,1.13-1.06Z"/></g></g></svg>