<svg xmlns="http://www.w3.org/2000/svg" viewBox="0 0 132.51 17.42"><defs><style>.cls-1,.cls-2{fill:#fff;}.cls-1{fill-rule:evenodd;}</style></defs><g id="Capa_2" data-name="Capa 2"><g id="Layer_1" data-name="Layer 1"><path class="cls-1" d="M25.82,14.63c6.31,1.9,6.64-5.38,3.69-8.06.43-1.16-.21-2.9-1.75-4.41C25.76.23,23.05-.55,21.7.41h0c-1.38,1-.86,3.32,1.11,5.24A6.94,6.94,0,0,0,27.6,7.81a5.8,5.8,0,0,1,1.76,1.27c4.77,5-2.18,5.54-14.56-1.43C.44-.45-1.51,4.84.84,8.84c1.36,1.09.44,3.09,1.8,4.1,1.59,1.19,3.81,2.65,5.93,2.49A31.94,31.94,0,0,1,3.5,12.12.33.33,0,0,1,3.35,12a.65.65,0,0,1-.09-.23v0a.34.34,0,0,1,0-.2.27.27,0,0,1,.07-.21L4.62,9h0a.23.23,0,0,1,.07-.11.91.91,0,0,1,.14-.07.47.47,0,0,1,.2,0A1.51,1.51,0,0,1,5.27,9V9l6.3,4.65h0a.72.72,0,0,0,.27.12c0-1.47-4-4.19-5.63-5.41L5.14,7.58h0C3.91,6.75,3,8.44,1.58,7.47c-2.92-1.88.71-3.32,7.07-1.59C16.56,8,20.42,13,25.82,14.63Zm-21-3.55A.71.71,0,0,0,4.33,11h0a.76.76,0,0,0-.45.17h0a.5.5,0,0,0-.15.39h0a.47.47,0,0,0,.21.37c7.67,4.66,7.82,4.74.85-.8Zm.79-1.35a.63.63,0,0,0-.46-.14h0a.55.55,0,0,0-.43.18h0a.53.53,0,0,0-.17.38.56.56,0,0,0,.22.37h0c8.87,6,7.93,5.14.84-.79Z"/><path class="cls-2" d="M39.8,12V4.12h1.47l2.07,4.41.71,1.68h0Q44,9.6,44,8.89a12.78,12.78,0,0,1-.07-1.36V4.12h1.33V12H43.76L41.69,7.55,41,5.89h0c0,.42.08.86.12,1.31a12.19,12.19,0,0,1,.08,1.34V12Z"/><path class="cls-2" d="M49.72,12.11a3,3,0,0,1-1.12-.2,2.84,2.84,0,0,1-1-.6,2.9,2.9,0,0,1-.65-1A3.22,3.22,0,0,1,46.75,9,3.22,3.22,0,0,1,47,7.72a2.9,2.9,0,0,1,.65-1,2.87,2.87,0,0,1,1-.61,3.07,3.07,0,0,1,2.23,0,2.87,2.87,0,0,1,1,.61,2.9,2.9,0,0,1,.65,1A3.22,3.22,0,0,1,52.68,9a3.22,3.22,0,0,1-.25,1.31,2.9,2.9,0,0,1-.65,1,2.84,2.84,0,0,1-1,.6A3,3,0,0,1,49.72,12.11Zm0-1.12a1.32,1.32,0,0,0,1.12-.54A2.22,2.22,0,0,0,51.25,9a2.23,2.23,0,0,0-.41-1.43,1.32,1.32,0,0,0-1.12-.54,1.34,1.34,0,0,0-1.13.54A2.29,2.29,0,0,0,48.18,9a2.28,2.28,0,0,0,.41,1.42A1.34,1.34,0,0,0,49.72,11Z"/><path class="cls-2" d="M56.14,12.11a2.53,2.53,0,0,1-.8-.12,1.91,1.91,0,0,1-.62-.36,1.55,1.55,0,0,1-.41-.54,1.78,1.78,0,0,1-.14-.7,1.57,1.57,0,0,1,.23-.87,1.77,1.77,0,0,1,.72-.65,4.85,4.85,0,0,1,1.26-.43,13.3,13.3,0,0,1,1.86-.24,1.34,1.34,0,0,0-.36-.83,1.48,1.48,0,0,0-1.05-.32,2.68,2.68,0,0,0-1,.19,8,8,0,0,0-.94.43l-.5-.92a7,7,0,0,1,1.23-.56,4.22,4.22,0,0,1,1.45-.26A2.53,2.53,0,0,1,59,6.59a2.56,2.56,0,0,1,.65,1.89V12H58.49l-.11-.73h0a5.52,5.52,0,0,1-1,.62A2.83,2.83,0,0,1,56.14,12.11ZM56.56,11a2,2,0,0,0,.85-.19,4.8,4.8,0,0,0,.83-.53V9.07a11.35,11.35,0,0,0-1.32.16,3,3,0,0,0-.84.26,1.12,1.12,0,0,0-.45.35.76.76,0,0,0-.13.44.61.61,0,0,0,.31.57A1.44,1.44,0,0,0,56.56,11Z"/><path class="cls-2" d="M61.92,12V4.06h2.26a4.35,4.35,0,0,1,1.06.12,2.16,2.16,0,0,1,.83.36,1.74,1.74,0,0,1,.52.65,2.13,2.13,0,0,1,.19,1,2,2,0,0,1-.55,1.48,2.52,2.52,0,0,1-1.48.67L66.94,12h-.65L64.15,8.33H62.47V12Zm.55-4.09H64a2.59,2.59,0,0,0,1.62-.43,1.52,1.52,0,0,0,.57-1.3,1.36,1.36,0,0,0-.57-1.25A2.9,2.9,0,0,0,64,4.53H62.47Z"/><path class="cls-2" d="M71.68,12.11a3.29,3.29,0,0,1-1.18-.2,2.91,2.91,0,0,1-1-.59,2.86,2.86,0,0,1-.65-1,3.2,3.2,0,0,1-.24-1.27,3.22,3.22,0,0,1,.24-1.26,2.85,2.85,0,0,1,1.55-1.55,2.9,2.9,0,0,1,1.09-.21,3,3,0,0,1,1.07.18,2.27,2.27,0,0,1,1.33,1.36,3.25,3.25,0,0,1,.18,1.12V9a1.5,1.5,0,0,1,0,.22h-4.9a2.76,2.76,0,0,0,.22,1.07A2.36,2.36,0,0,0,70,11a2.41,2.41,0,0,0,.8.48,3,3,0,0,0,.95.16,3,3,0,0,0,1.06-.18,3.59,3.59,0,0,0,.87-.45l.22.4a4.75,4.75,0,0,1-.9.47A3.39,3.39,0,0,1,71.68,12.11Zm-.15-5.59a2.24,2.24,0,0,0-.81.15,2.15,2.15,0,0,0-.71.42,2.44,2.44,0,0,0-.53.69,2.72,2.72,0,0,0-.28.94h4.42A2.33,2.33,0,0,0,73,7.06,2,2,0,0,0,71.53,6.52Z"/><path class="cls-2" d="M78.74,12.11a4.49,4.49,0,0,1-1.61-.27,5.88,5.88,0,0,1-1.23-.64l.27-.38a4.34,4.34,0,0,0,1.1.6,4.18,4.18,0,0,0,1.52.24,2.2,2.2,0,0,0,1.33-.34,1,1,0,0,0,.45-.8,1.15,1.15,0,0,0-.06-.37.73.73,0,0,0-.27-.33,2.43,2.43,0,0,0-.61-.32,8.56,8.56,0,0,0-1.09-.29,5,5,0,0,1-1.7-.59,1.14,1.14,0,0,1-.6-1A1.34,1.34,0,0,1,76.37,7a1.27,1.27,0,0,1,.41-.49,2.22,2.22,0,0,1,.71-.33,3.7,3.7,0,0,1,1-.12,3.53,3.53,0,0,1,1.18.2,4,4,0,0,1,1,.5l-.29.39a3.25,3.25,0,0,0-2-.64,3,3,0,0,0-.8.09,1.51,1.51,0,0,0-.51.24.8.8,0,0,0-.28.33,1,1,0,0,0-.08.39.81.81,0,0,0,.46.72,5.31,5.31,0,0,0,1.43.46,10.61,10.61,0,0,1,1.22.33,2.75,2.75,0,0,1,.75.38,1.13,1.13,0,0,1,.37.46,1.48,1.48,0,0,1,.1.57,1.22,1.22,0,0,1-.16.62,1.41,1.41,0,0,1-.46.52,2.37,2.37,0,0,1-.75.35A3.44,3.44,0,0,1,78.74,12.11Z"/><path class="cls-2" d="M86.88,12.11a2.65,2.65,0,0,1-1-.16,1.68,1.68,0,0,1-.63-.47,2,2,0,0,1-.33-.73,3.93,3.93,0,0,1-.1-.94V6.67H83.08V6.26l1.75,0L84.9,4.3h.44V6.21h3.08v.46H85.34V9.86a3.38,3.38,0,0,0,.08.75,1.25,1.25,0,0,0,.25.56,1.07,1.07,0,0,0,.49.36,2.23,2.23,0,0,0,.79.12,4,4,0,0,0,.82-.08,4.29,4.29,0,0,0,.72-.22l.14.4a4.71,4.71,0,0,1-.8.27A4.51,4.51,0,0,1,86.88,12.11Z"/><path class="cls-2" d="M92.42,12.11a3.2,3.2,0,0,1-.75-.09,2.2,2.2,0,0,1-.64-.29,1.48,1.48,0,0,1-.44-.49,1.46,1.46,0,0,1-.17-.71,1.41,1.41,0,0,1,.25-.84,2,2,0,0,1,.79-.62,5.66,5.66,0,0,1,1.37-.44,19,19,0,0,1,2-.27,2.61,2.61,0,0,0-.09-.69,1.43,1.43,0,0,0-.28-.58,1.37,1.37,0,0,0-.53-.41,2,2,0,0,0-.82-.15,2.74,2.74,0,0,0-.64.08,3.47,3.47,0,0,0-.6.19,3.6,3.6,0,0,0-.52.26l-.42.25-.24-.39a4.19,4.19,0,0,1,.43-.27,5.62,5.62,0,0,1,.6-.28,6.22,6.22,0,0,1,.69-.21,3.22,3.22,0,0,1,.76-.09,2.5,2.5,0,0,1,1,.17,1.88,1.88,0,0,1,.68.47,2.13,2.13,0,0,1,.39.71,3,3,0,0,1,.12.87V12h-.44l-.06-.86h0a7.07,7.07,0,0,1-1.14.7A2.93,2.93,0,0,1,92.42,12.11Zm.1-.45a3.67,3.67,0,0,0,2.32-1.05V8.77A14.11,14.11,0,0,0,93,9a5.43,5.43,0,0,0-1.19.37,1.65,1.65,0,0,0-.65.49,1.07,1.07,0,0,0-.19.63,1,1,0,0,0,.13.52,1,1,0,0,0,.36.36,1.5,1.5,0,0,0,.5.2A2.22,2.22,0,0,0,92.52,11.66Z"/><path class="cls-2" d="M99.62,12.11c-1.37,0-2.06-.77-2.06-2.31V6.21h.53V9.73a2.32,2.32,0,0,0,.37,1.44,1.53,1.53,0,0,0,1.25.46,2.12,2.12,0,0,0,.57-.07,2.61,2.61,0,0,0,.54-.24,3.79,3.79,0,0,0,.53-.41c.18-.17.36-.36.57-.58V6.21h.52V12H102l-.06-1.12h0a4.57,4.57,0,0,1-1,.91A2.22,2.22,0,0,1,99.62,12.11Z"/><path class="cls-2" d="M105.67,12V6.21h.46l.06,1.42h0a4,4,0,0,1,1.16-1.13,2.85,2.85,0,0,1,1.55-.43,3.9,3.9,0,0,1,.59,0,2.16,2.16,0,0,1,.57.2l-.15.46a4.53,4.53,0,0,0-.53-.15,2.9,2.9,0,0,0-.56,0,2.61,2.61,0,0,0-1.38.41,4.12,4.12,0,0,0-1.25,1.39V12Z"/><path class="cls-2" d="M114,12.11a3.2,3.2,0,0,1-.75-.09,2.2,2.2,0,0,1-.64-.29,1.48,1.48,0,0,1-.44-.49,1.46,1.46,0,0,1-.17-.71,1.41,1.41,0,0,1,.25-.84,2,2,0,0,1,.79-.62,5.72,5.72,0,0,1,1.36-.44,19.78,19.78,0,0,1,2-.27,2.61,2.61,0,0,0-.08-.69,1.43,1.43,0,0,0-.28-.58,1.37,1.37,0,0,0-.53-.41,2,2,0,0,0-.82-.15,2.74,2.74,0,0,0-.64.08,3.22,3.22,0,0,0-.6.19,3.6,3.6,0,0,0-.52.26l-.42.25-.24-.39a4.19,4.19,0,0,1,.43-.27,5.62,5.62,0,0,1,.6-.28,6.22,6.22,0,0,1,.69-.21,3.22,3.22,0,0,1,.76-.09,2.5,2.5,0,0,1,1,.17,1.88,1.88,0,0,1,.68.47,2.13,2.13,0,0,1,.39.71,3,3,0,0,1,.12.87V12h-.44l-.06-.86h0a6.56,6.56,0,0,1-1.13.7A2.93,2.93,0,0,1,114,12.11Zm.1-.45a3.63,3.63,0,0,0,2.31-1.05V8.77a14.18,14.18,0,0,0-1.84.25,5.43,5.43,0,0,0-1.19.37,1.58,1.58,0,0,0-.65.49,1.07,1.07,0,0,0-.19.63,1,1,0,0,0,.13.52,1,1,0,0,0,.36.36,1.5,1.5,0,0,0,.5.2A2.22,2.22,0,0,0,114.12,11.66Z"/><path class="cls-2" d="M119.38,12V6.21h.45l.06,1.1h0a6,6,0,0,1,1-.89,2.19,2.19,0,0,1,1.23-.35q2.07,0,2.07,2.31V12h-.54V8.45A2.32,2.32,0,0,0,123.37,7a1.53,1.53,0,0,0-1.25-.46,2.07,2.07,0,0,0-.57.07,2.71,2.71,0,0,0-.52.24,3.79,3.79,0,0,0-.53.41c-.18.17-.38.36-.58.57V12Z"/><path class="cls-2" d="M130.08,12.11a2.65,2.65,0,0,1-1-.16,1.68,1.68,0,0,1-.63-.47,1.82,1.82,0,0,1-.33-.73,3.91,3.91,0,0,1-.11-.94V6.67h-1.74V6.26l1.76,0,.07-1.91h.44V6.21h3.07v.46h-3.07V9.86a4.16,4.16,0,0,0,.07.75,1.38,1.38,0,0,0,.26.56,1.07,1.07,0,0,0,.49.36,2.23,2.23,0,0,0,.79.12,4.07,4.07,0,0,0,.82-.08,4.6,4.6,0,0,0,.72-.22l.14.4a4.71,4.71,0,0,1-.8.27A4.51,4.51,0,0,1,130.08,12.11Z"/></g></g></svg>